<svg width="63" height="15" viewBox="0 0 63 15" fill="none" xmlns="http://www.w3.org/2000/svg">
<path d="M9.048 3.624V12.108H5.652V9.564H3.96V12.108H0.564V3.624H3.96V6.18H5.652V3.624H9.048ZM18.6945 3.492V9.432H17.4225L18.6945 11.976H14.8785L13.6065 9.432V11.976H10.2105V3.492H18.6945ZM15.2985 7.74V6.456H13.6065V7.74H15.2985Z" fill="#FF0000"/>
<path d="M21.904 3.6H25.24V12H24.28V8.16H20.92V12H19.96V5.604L21.904 3.6ZM20.92 5.832V7.296H24.28V4.464H22.252L20.92 5.832ZM31.4873 3.6H32.4473V9.288L29.8433 12H29.0033L27.1433 9.24V3.6H28.1033V9.108L29.4593 11.148L31.4873 9.048V3.6ZM36.2946 3.6H39.6306V12H38.6706V8.16H35.3106V12H34.3506V5.604L36.2946 3.6ZM35.3106 5.832V7.296H38.6706V4.464H36.6426L35.3106 5.832ZM41.0539 3.6H47.3179V4.464H43.7419L44.6779 5.04V12H43.7059V5.16L43.2499 4.464H41.0539V3.6ZM50.6853 3.6H54.0213V12H53.0613V8.16H49.7013V12H48.7413V5.604L50.6853 3.6ZM49.7013 5.832V7.296H53.0613V4.464H51.0333L49.7013 5.832ZM55.9126 3.6H59.9446L61.2406 5.484V6.684L60.0526 7.896L61.2406 9.612V12H60.2686V9.72L59.0566 7.956H57.8206L56.8726 7.368V12H55.9126V3.6ZM56.8726 4.464V7.08H59.6566L60.2686 6.468V5.616L59.4766 4.464H56.8726Z" fill="black"/>
</svg>
