<svg xmlns="http://www.w3.org/2000/svg" viewBox="75 138 310 150">
  <path fill-rule="evenodd" clip-rule="evenodd" d="M161.341 152.912L91.172 152.912L96.236 138.675L166.406 138.675L161.341 152.912Z M158.809 160.031L88.64 160.031L83.57 174.268L153.74 174.268L158.804 160.031L158.809 160.031Z M151.228 181.387L81.053 181.387L75.994 195.624L146.163 195.624L151.223 181.387L151.228 181.387Z" style="stroke-width:1;"/>
  <path fill-rule="evenodd" clip-rule="evenodd" d="M333.318 226.717L346.075 226.717C350.916 226.717 353.85 225.589 355.899 223.056C356.926 221.785 358.391 219.538 358.391 215.317C358.391 211.097 356.926 208.138 353.997 206.028C352.238 204.756 349.889 204.055 345.928 204.055L333.318 204.055L333.318 226.717Z M316.452 240.37L316.452 159.014L371.596 159.014L366.755 172.667L333.318 172.667L333.318 190.682L346.955 190.682C357.953 190.682 363.674 193.219 367.635 196.453C370.716 198.99 375.994 204.619 375.994 215.739C375.994 226.717 370.569 232.773 366.018 235.865C360.74 239.383 355.167 240.37 343.874 240.37L316.452 240.37Z M267.613 240.37L267.613 172.667L243.119 172.667L243.119 159.014L311.169 159.014L306.333 172.667L284.621 172.667L284.621 240.37L267.613 240.37Z M199.711 191.531L209.245 191.531C212.174 191.531 213.643 191.531 215.108 191.104C219.074 189.985 221.565 186.604 221.565 181.956C221.565 176.465 218.921 174.075 215.108 172.951C213.496 172.529 211.884 172.387 208.655 172.387L199.706 172.387L199.706 191.531L199.711 191.531Z M199.858 205.606L199.858 226.997L211.589 226.997C215.108 226.997 218.336 226.717 220.68 224.607C223.03 222.492 224.057 219.822 224.057 216.299C224.057 213.629 223.319 211.092 221.855 209.261C219.363 206.307 216.282 205.6 211.004 205.6L199.858 205.6L199.858 205.606Z M226.991 197.017L226.991 197.297C230.214 198.426 233.296 200.399 234.908 201.665C239.891 205.606 242.092 210.812 242.092 217.565C242.092 228.685 235.935 236.709 225.816 239.241C222.735 240.085 219.511 240.37 213.496 240.37L182.845 240.37L182.845 159.014L209.977 159.014C215.55 159.014 219.363 159.299 222.735 160.143C232.558 162.675 239.016 169.148 239.016 179.424C239.016 184.916 236.962 189.558 233.586 192.655C232.121 194.063 230.067 195.751 226.991 197.017Z" style="stroke-width:1;"/>
  <text style="fill:#333;font-family:'42dot Sans';font-size:33.2581px;font-weight:700;white-space:pre;" transform="matrix(1.353052,0,0,1.353052,-64.952026,-77.635971)">
    <tspan x="183.973" y="270.951">HR Pulse</tspan>
  </text>
</svg>
