<svg xmlns="http://www.w3.org/2000/svg" xmlns:bx="https://boxy-svg.com" viewBox="0 0 500 500">
  <path fill-rule="evenodd" clip-rule="evenodd" d="M 161.341 152.912 L 91.172 152.912 L 96.236 138.675 L 166.406 138.675 L 161.341 152.912 Z M 158.809 160.031 L 88.64 160.031 L 83.57 174.268 L 153.74 174.268 L 158.804 160.031 L 158.809 160.031 Z M 151.228 181.387 L 81.053 181.387 L 75.994 195.624 L 146.163 195.624 L 151.223 181.387 L 151.228 181.387 Z" style="stroke-width: 1;"/>
  <path fill-rule="evenodd" clip-rule="evenodd" d="M 333.318 226.717 L 346.075 226.717 C 350.916 226.717 353.85 225.589 355.899 223.056 C 356.926 221.785 358.391 219.538 358.391 215.317 C 358.391 211.097 356.926 208.138 353.997 206.028 C 352.238 204.756 349.889 204.055 345.928 204.055 L 333.318 204.055 L 333.318 226.717 Z M 316.452 240.37 L 316.452 159.014 L 371.596 159.014 L 366.755 172.667 L 333.318 172.667 L 333.318 190.682 L 346.955 190.682 C 357.953 190.682 363.674 193.219 367.635 196.453 C 370.716 198.99 375.994 204.619 375.994 215.739 C 375.994 226.717 370.569 232.773 366.018 235.865 C 360.74 239.383 355.167 240.37 343.874 240.37 L 316.452 240.37 Z M 267.613 240.37 L 267.613 172.667 L 243.119 172.667 L 243.119 159.014 L 311.169 159.014 L 306.333 172.667 L 284.621 172.667 L 284.621 240.37 L 267.613 240.37 Z M 199.711 191.531 L 209.245 191.531 C 212.174 191.531 213.643 191.531 215.108 191.104 C 219.074 189.985 221.565 186.604 221.565 181.956 C 221.565 176.465 218.921 174.075 215.108 172.951 C 213.496 172.529 211.884 172.387 208.655 172.387 L 199.706 172.387 L 199.706 191.531 L 199.711 191.531 Z M 199.858 205.606 L 199.858 226.997 L 211.589 226.997 C 215.108 226.997 218.336 226.717 220.68 224.607 C 223.03 222.492 224.057 219.822 224.057 216.299 C 224.057 213.629 223.319 211.092 221.855 209.261 C 219.363 206.307 216.282 205.6 211.004 205.6 L 199.858 205.6 L 199.858 205.606 Z M 226.991 197.017 L 226.991 197.297 C 230.214 198.426 233.296 200.399 234.908 201.665 C 239.891 205.606 242.092 210.812 242.092 217.565 C 242.092 228.685 235.935 236.709 225.816 239.241 C 222.735 240.085 219.511 240.37 213.496 240.37 L 182.845 240.37 L 182.845 159.014 L 209.977 159.014 C 215.55 159.014 219.363 159.299 222.735 160.143 C 232.558 162.675 239.016 169.148 239.016 179.424 C 239.016 184.916 236.962 189.558 233.586 192.655 C 232.121 194.063 230.067 195.751 226.991 197.017 Z" style="stroke-width: 1;"/>
  <text style="fill: rgb(51, 51, 51); font-family: &quot;42dot Sans&quot;; font-size: 33.2581px; font-weight: 700; white-space: pre;" transform="matrix(1.353052, 0, 0, 1.353052, -64.952026, -77.635971)"><tspan x="183.973" y="270.951">HR Pulse</tspan><tspan x="183.973" dy="1em">&ZeroWidthSpace;</tspan></text>
  <defs>
    <style bx:fonts="42dot Sans">@import url(https://fonts.googleapis.com/css2?family=42dot+Sans%3Aital%2Cwght%400%2C300..800&amp;display=swap);</style>
  </defs>
</svg>